<?xml version="1.0" encoding="UTF-8" standalone="no"?>
<!-- Created with Inkscape (http://www.inkscape.org/) -->

<svg
   version="1.1"
   id="svg78"
   width="2000"
   height="2000"
   viewBox="0 0 2000 2000"
   sodipodi:docname="no-image.svg"
   inkscape:version="1.2.1 (9c6d41e4, 2022-07-14)"
   xmlns:inkscape="http://www.inkscape.org/namespaces/inkscape"
   xmlns:sodipodi="http://sodipodi.sourceforge.net/DTD/sodipodi-0.dtd"
   xmlns="http://www.w3.org/2000/svg"
   xmlns:svg="http://www.w3.org/2000/svg">
  <defs
     id="defs82" />
  <sodipodi:namedview
     id="namedview80"
     pagecolor="#ffffff"
     bordercolor="#000000"
     borderopacity="0.25"
     inkscape:showpageshadow="2"
     inkscape:pageopacity="0.0"
     inkscape:pagecheckerboard="0"
     inkscape:deskcolor="#d1d1d1"
     showgrid="false"
     inkscape:zoom="0.1475"
     inkscape:cx="2427.1186"
     inkscape:cy="938.98305"
     inkscape:window-width="1379"
     inkscape:window-height="761"
     inkscape:window-x="127"
     inkscape:window-y="93"
     inkscape:window-maximized="0"
     inkscape:current-layer="g88">
    <inkscape:page
       x="0"
       y="0"
       id="page84"
       width="2000"
       height="2000" />
  </sodipodi:namedview>
  <g
     id="g86"
     inkscape:groupmode="layer"
     inkscape:label="Page 1"
     transform="matrix(1.3333333,0,0,-1.3333333,-27.687999,1563.6405)">
    <g
       id="g88"
       transform="matrix(0.1,0,0,0.1,-2984.7459,-177.96611)">
      <g
         id="g3031"
         transform="translate(555.11919,6.9644312)">
        <path
           d="m 34965.9,7555.62 -537.9,-4173.88 580.5,-101.19 511.3,-634.68 360.4,5243.29 -914.3,-333.54"
           style="fill:#100f0d;fill-opacity:1;fill-rule:nonzero;stroke:none"
           id="path96" />
        <path
           d="m 37679,7886.27 v 305.77 c 0,271.87 -161.4,521.57 -393.2,650.22 -38.3,-55.05 -62.2,-120.01 -70.3,-190.59 156,-97.28 262.6,-271.16 262.6,-459.63 v -290.11 l 200.9,-15.66"
           style="fill:#100f0d;fill-opacity:1;fill-rule:nonzero;stroke:none"
           id="path98" />
        <path
           d="m 36510.6,8300.44 c 0,126.95 48.8,241.36 137.5,322.14 20.4,18.6 42.4,34.84 65.8,48.85 6,82.64 22.4,162.41 48.6,237.97 -92.6,-25.96 -177.7,-72.55 -249.8,-138.32 -130.9,-119.32 -203,-286.47 -203,-470.64 v -307.42 l 200.9,-15.67 v 323.09"
           style="fill:#100f0d;fill-opacity:1;fill-rule:nonzero;stroke:none"
           id="path100" />
        <path
           d="m 39244.3,7638.48 -573.8,44.73 v -206.5 c 62.9,-63.07 101.8,-150.09 101.8,-246.21 0,-192.54 -156.1,-348.63 -348.7,-348.63 -192.5,0 -348.6,156.09 -348.6,348.63 0,92.01 35.7,175.63 93.9,237.94 v 253.87 l -956.5,74.57 V 7520.5 c 60.6,-62.71 97.9,-148 97.9,-242.06 0,-192.55 -156.1,-348.64 -348.7,-348.64 -192.5,0 -348.6,156.09 -348.6,348.64 0,94.06 37.3,179.36 97.9,242.07 v 315.47 l -682.1,53.18 -375.2,-5277.48 3918.4,453.87 -327.7,4572.93"
           style="fill:#100f0d;fill-opacity:1;fill-rule:nonzero;stroke:none"
           id="path102" />
        <path
           d="m 36961.6,7078.94 c 110.2,0 199.5,89.32 199.5,199.5 0,62.66 -28.9,118.51 -74.1,155.09 v 1164.79 c 0,158.43 60.9,301.2 171.5,402.01 111.5,101.57 260.8,149.33 420.6,134.53 339.2,-31.47 615.2,-332.85 615.2,-671.81 v -1080.8 c -42.9,-36.6 -70.2,-90.95 -70.2,-151.75 0,-110.18 89.4,-199.5 199.5,-199.5 110.2,0 199.5,89.32 199.5,199.5 0,64.43 -30.6,121.57 -78,158.04 v 1074.51 c 0,465 -378.1,878.39 -842.8,921.51 -231,21.43 -448.5,-49.23 -612.7,-198.9 -163.4,-148.91 -253.3,-357.5 -253.3,-587.34 v -1164.8 c -45.2,-36.57 -74.2,-92.42 -74.2,-155.08 0,-110.18 89.4,-199.5 199.5,-199.5"
           style="fill:#100f0d;fill-opacity:1;fill-rule:nonzero;stroke:none"
           id="path104" />
      </g>
    </g>
  </g>
</svg>
